<svg xmlns="http://www.w3.org/2000/svg" xmlns:xlink="http://www.w3.org/1999/xlink" width="500" zoomAndPan="magnify" viewBox="0 0 375 374.999991" height="500" preserveAspectRatio="xMidYMid meet" version="1.0"><defs><g/><clipPath id="9f93ffdcfb"><path d="M 126 132 L 217 132 L 217 201 L 126 201 Z M 126 132 " clip-rule="nonzero"/></clipPath><clipPath id="5548ae058e"><path d="M 114.644531 129.101562 L 208.183594 107.511719 L 225.050781 180.589844 L 131.511719 202.179688 Z M 114.644531 129.101562 " clip-rule="nonzero"/></clipPath><clipPath id="cc0698585e"><path d="M 114.644531 129.101562 L 208.183594 107.511719 L 225.050781 180.589844 L 131.511719 202.179688 Z M 114.644531 129.101562 " clip-rule="nonzero"/></clipPath><clipPath id="fb8e656283"><path d="M 160 155 L 170 155 L 170 165 L 160 165 Z M 160 155 " clip-rule="nonzero"/></clipPath><clipPath id="b6d76ddf1e"><path d="M 114.644531 129.101562 L 208.183594 107.511719 L 225.050781 180.589844 L 131.511719 202.179688 Z M 114.644531 129.101562 " clip-rule="nonzero"/></clipPath><clipPath id="cb5fb20dd1"><path d="M 114.644531 129.101562 L 208.183594 107.511719 L 225.050781 180.589844 L 131.511719 202.179688 Z M 114.644531 129.101562 " clip-rule="nonzero"/></clipPath><clipPath id="6949f99721"><path d="M 171 152 L 180 152 L 180 161 L 171 161 Z M 171 152 " clip-rule="nonzero"/></clipPath><clipPath id="18bdc03fba"><path d="M 114.644531 129.101562 L 208.183594 107.511719 L 225.050781 180.589844 L 131.511719 202.179688 Z M 114.644531 129.101562 " clip-rule="nonzero"/></clipPath><clipPath id="01b2b08eae"><path d="M 114.644531 129.101562 L 208.183594 107.511719 L 225.050781 180.589844 L 131.511719 202.179688 Z M 114.644531 129.101562 " clip-rule="nonzero"/></clipPath><clipPath id="6c2c04d905"><path d="M 192 134 L 210 134 L 210 152 L 192 152 Z M 192 134 " clip-rule="nonzero"/></clipPath><clipPath id="40a8d71303"><path d="M 114.644531 129.101562 L 208.183594 107.511719 L 225.050781 180.589844 L 131.511719 202.179688 Z M 114.644531 129.101562 " clip-rule="nonzero"/></clipPath><clipPath id="95ff32eec1"><path d="M 114.644531 129.101562 L 208.183594 107.511719 L 225.050781 180.589844 L 131.511719 202.179688 Z M 114.644531 129.101562 " clip-rule="nonzero"/></clipPath><clipPath id="b1cd7be81d"><path d="M 183 147 L 194 147 L 194 158 L 183 158 Z M 183 147 " clip-rule="nonzero"/></clipPath><clipPath id="953721d77b"><path d="M 114.644531 129.101562 L 208.183594 107.511719 L 225.050781 180.589844 L 131.511719 202.179688 Z M 114.644531 129.101562 " clip-rule="nonzero"/></clipPath><clipPath id="edb273fea4"><path d="M 114.644531 129.101562 L 208.183594 107.511719 L 225.050781 180.589844 L 131.511719 202.179688 Z M 114.644531 129.101562 " clip-rule="nonzero"/></clipPath><clipPath id="fd6375b254"><path d="M 173 140 L 184 140 L 184 151 L 173 151 Z M 173 140 " clip-rule="nonzero"/></clipPath><clipPath id="960c7a3a4d"><path d="M 114.644531 129.101562 L 208.183594 107.511719 L 225.050781 180.589844 L 131.511719 202.179688 Z M 114.644531 129.101562 " clip-rule="nonzero"/></clipPath><clipPath id="c338580c3a"><path d="M 114.644531 129.101562 L 208.183594 107.511719 L 225.050781 180.589844 L 131.511719 202.179688 Z M 114.644531 129.101562 " clip-rule="nonzero"/></clipPath><clipPath id="b8e3169990"><path d="M 168 130 L 179 130 L 179 141 L 168 141 Z M 168 130 " clip-rule="nonzero"/></clipPath><clipPath id="f36f159355"><path d="M 114.644531 129.101562 L 208.183594 107.511719 L 225.050781 180.589844 L 131.511719 202.179688 Z M 114.644531 129.101562 " clip-rule="nonzero"/></clipPath><clipPath id="74a10d8af2"><path d="M 114.644531 129.101562 L 208.183594 107.511719 L 225.050781 180.589844 L 131.511719 202.179688 Z M 114.644531 129.101562 " clip-rule="nonzero"/></clipPath><clipPath id="c14bf74ccc"><path d="M 163 146 L 172 146 L 172 155 L 163 155 Z M 163 146 " clip-rule="nonzero"/></clipPath><clipPath id="cbf84ec988"><path d="M 114.644531 129.101562 L 208.183594 107.511719 L 225.050781 180.589844 L 131.511719 202.179688 Z M 114.644531 129.101562 " clip-rule="nonzero"/></clipPath><clipPath id="0d26a6ca3e"><path d="M 114.644531 129.101562 L 208.183594 107.511719 L 225.050781 180.589844 L 131.511719 202.179688 Z M 114.644531 129.101562 " clip-rule="nonzero"/></clipPath><clipPath id="9622fff7be"><path d="M 180 123 L 195 123 L 195 138 L 180 138 Z M 180 123 " clip-rule="nonzero"/></clipPath><clipPath id="b5a9c6388f"><path d="M 114.644531 129.101562 L 208.183594 107.511719 L 225.050781 180.589844 L 131.511719 202.179688 Z M 114.644531 129.101562 " clip-rule="nonzero"/></clipPath><clipPath id="4e02b777b7"><path d="M 114.644531 129.101562 L 208.183594 107.511719 L 225.050781 180.589844 L 131.511719 202.179688 Z M 114.644531 129.101562 " clip-rule="nonzero"/></clipPath><clipPath id="71c83a0f13"><path d="M 179 113 L 190 113 L 190 124 L 179 124 Z M 179 113 " clip-rule="nonzero"/></clipPath><clipPath id="8c400bda2e"><path d="M 114.644531 129.101562 L 208.183594 107.511719 L 225.050781 180.589844 L 131.511719 202.179688 Z M 114.644531 129.101562 " clip-rule="nonzero"/></clipPath><clipPath id="b3932fc9e6"><path d="M 114.644531 129.101562 L 208.183594 107.511719 L 225.050781 180.589844 L 131.511719 202.179688 Z M 114.644531 129.101562 " clip-rule="nonzero"/></clipPath><clipPath id="7eeb4a2a5d"><path d="M 191 107 L 213 107 L 213 129 L 191 129 Z M 191 107 " clip-rule="nonzero"/></clipPath><clipPath id="5f8b99ea5c"><path d="M 114.644531 129.101562 L 208.183594 107.511719 L 225.050781 180.589844 L 131.511719 202.179688 Z M 114.644531 129.101562 " clip-rule="nonzero"/></clipPath><clipPath id="6d07db65ee"><path d="M 114.644531 129.101562 L 208.183594 107.511719 L 225.050781 180.589844 L 131.511719 202.179688 Z M 114.644531 129.101562 " clip-rule="nonzero"/></clipPath></defs><g clip-path="url(#9f93ffdcfb)"><g clip-path="url(#5548ae058e)"><g clip-path="url(#cc0698585e)"><path fill="#3a9bdc" d="M 128.035156 140.539062 L 164.960938 132.015625 L 165.660156 135.03125 L 133.136719 142.535156 C 131.933594 142.816406 131.175781 144.027344 131.453125 145.234375 L 139.378906 179.582031 C 139.660156 180.789062 140.871094 181.546875 142.078125 181.269531 L 198.714844 168.195312 C 199.917969 167.917969 200.679688 166.703125 200.398438 165.496094 L 197.871094 154.535156 L 202.621094 153.4375 L 205.765625 167.074219 C 205.964844 167.929688 205.710938 168.789062 205.160156 169.402344 L 206.246094 169.152344 C 206.246094 169.152344 209.65625 171.699219 216.476562 176.796875 C 216.414062 179.859375 215.347656 181.902344 213.273438 182.921875 C 213.273438 182.921875 187.695312 188.828125 136.542969 200.632812 C 134 201.148438 131.902344 199.835938 130.246094 196.699219 C 130.246094 196.699219 132.195312 192.914062 136.09375 185.34375 L 136.8125 185.175781 C 136.050781 184.867188 135.445312 184.207031 135.246094 183.351562 L 126.085938 143.65625 C 125.761719 142.265625 126.640625 140.859375 128.035156 140.539062 Z M 167.488281 189.640625 L 179.910156 186.773438 C 180.511719 186.636719 181.121094 187.015625 181.261719 187.617188 C 181.398438 188.222656 181.019531 188.828125 180.417969 188.96875 L 167.992188 191.835938 C 167.390625 191.972656 166.785156 191.59375 166.644531 190.992188 C 166.503906 190.386719 166.882812 189.78125 167.488281 189.640625 Z M 160.292969 190.148438 C 161.246094 187.617188 161.726562 186.355469 161.726562 186.355469 C 176.339844 182.980469 183.648438 181.292969 183.648438 181.292969 C 185.617188 183.148438 186.601562 184.078125 186.601562 184.078125 C 169.0625 188.125 160.292969 190.148438 160.292969 190.148438 Z M 160.292969 190.148438 " fill-opacity="1" fill-rule="evenodd"/></g></g></g><g clip-path="url(#fb8e656283)"><g clip-path="url(#b6d76ddf1e)"><g clip-path="url(#cb5fb20dd1)"><path fill="#3a9bdc" d="M 160.429688 157.402344 L 167.738281 155.71875 L 169.425781 163.023438 L 162.117188 164.710938 Z M 160.429688 157.402344 " fill-opacity="1" fill-rule="evenodd"/></g></g></g><g clip-path="url(#6949f99721)"><g clip-path="url(#18bdc03fba)"><g clip-path="url(#01b2b08eae)"><path fill="#f4f6fc" d="M 171.675781 154.425781 L 178.164062 152.925781 L 179.660156 159.414062 L 173.171875 160.914062 Z M 171.675781 154.425781 " fill-opacity="1" fill-rule="evenodd"/></g></g></g><g clip-path="url(#6c2c04d905)"><g clip-path="url(#40a8d71303)"><g clip-path="url(#95ff32eec1)"><path fill="#3a9bdc" d="M 192.054688 137.785156 L 205.941406 134.582031 L 209.148438 148.46875 L 195.257812 151.675781 Z M 192.054688 137.785156 " fill-opacity="1" fill-rule="evenodd"/></g></g></g><g clip-path="url(#b1cd7be81d)"><g clip-path="url(#953721d77b)"><g clip-path="url(#edb273fea4)"><path fill="#f4f6fc" d="M 183.195312 149.117188 L 191.191406 147.273438 L 193.035156 155.265625 L 185.042969 157.113281 Z M 183.195312 149.117188 " fill-opacity="1" fill-rule="evenodd"/></g></g></g><g clip-path="url(#fd6375b254)"><g clip-path="url(#960c7a3a4d)"><g clip-path="url(#c338580c3a)"><path fill="#3a9bdc" d="M 173.863281 142.035156 L 181.859375 140.191406 L 183.703125 148.183594 L 175.710938 150.027344 Z M 173.863281 142.035156 " fill-opacity="1" fill-rule="evenodd"/></g></g></g><g clip-path="url(#b8e3169990)"><g clip-path="url(#f36f159355)"><g clip-path="url(#74a10d8af2)"><path fill="#3a9bdc" d="M 168.550781 132.460938 L 176.546875 130.617188 L 178.390625 138.609375 L 170.398438 140.457031 Z M 168.550781 132.460938 " fill-opacity="1" fill-rule="evenodd"/></g></g></g><g clip-path="url(#c14bf74ccc)"><g clip-path="url(#cbf84ec988)"><g clip-path="url(#0d26a6ca3e)"><path fill="#f4f6fc" d="M 163.296875 147.9375 L 169.785156 146.441406 L 171.28125 152.929688 L 164.792969 154.425781 Z M 163.296875 147.9375 " fill-opacity="1" fill-rule="evenodd"/></g></g></g><g clip-path="url(#9622fff7be)"><g clip-path="url(#b5a9c6388f)"><g clip-path="url(#4e02b777b7)"><path fill="#f4f6fc" d="M 180.1875 126.289062 L 191.515625 123.671875 L 194.128906 135 L 182.800781 137.617188 Z M 180.1875 126.289062 " fill-opacity="1" fill-rule="evenodd"/></g></g></g><g clip-path="url(#71c83a0f13)"><g clip-path="url(#8c400bda2e)"><g clip-path="url(#b3932fc9e6)"><path fill="#3a9bdc" d="M 179.960938 115.203125 L 187.957031 113.359375 L 189.800781 121.351562 L 181.808594 123.199219 Z M 179.960938 115.203125 " fill-opacity="1" fill-rule="evenodd"/></g></g></g><g clip-path="url(#7eeb4a2a5d)"><g clip-path="url(#5f8b99ea5c)"><g clip-path="url(#6d07db65ee)"><path fill="#f4f6fc" d="M 191.375 111.390625 L 208.183594 107.511719 L 212.0625 124.320312 L 195.253906 128.199219 Z M 191.375 111.390625 " fill-opacity="1" fill-rule="evenodd"/></g></g></g><g fill="#ffffff" fill-opacity="1"><g transform="translate(78.374999, 238.726259)"><g><path d="M 20.625 0 L 18.796875 -3.546875 L 9.25 -3.546875 L 7.40625 0 L 0.390625 0 L 14.046875 -25.34375 L 27.65625 0 Z M 16.34375 -8.3125 L 14.046875 -12.75 L 11.703125 -8.3125 Z M 16.34375 -8.3125 "/></g></g></g><g fill="#ffffff" fill-opacity="1"><g transform="translate(106.407541, 238.726259)"><g><path d="M 20.4375 -19.265625 L 13.84375 -19.265625 L 13.84375 0 L 7.765625 0 L 7.765625 -19.265625 L 1.171875 -19.265625 L 1.171875 -25.34375 L 20.4375 -25.34375 Z M 20.4375 -19.265625 "/></g></g></g><g fill="#ffffff" fill-opacity="1"><g transform="translate(127.656127, 238.726259)"><g><path d="M 0.578125 -25.34375 L 6.671875 -25.34375 L 6.671875 0 L 0.578125 0 Z M 0.578125 -25.34375 "/></g></g></g><g fill="#ffffff" fill-opacity="1"><g transform="translate(134.907939, 238.726259)"><g><path d="M 14.78125 0 L 14.78125 -0.03125 L 1.171875 -25.34375 L 8.1875 -25.34375 L 14.8125 -12.71875 L 21.40625 -25.34375 L 28.4375 -25.34375 L 14.8125 -0.03125 Z M 14.78125 0 "/></g></g></g><g fill="#ffffff" fill-opacity="1"><g transform="translate(164.500001, 238.726259)"><g><path d="M 13.65625 -25.234375 C 17.269531 -25.234375 20.347656 -23.957031 22.890625 -21.40625 C 25.441406 -18.863281 26.71875 -15.785156 26.71875 -12.171875 C 26.71875 -8.554688 25.441406 -5.472656 22.890625 -2.921875 C 20.347656 -0.378906 17.269531 0.890625 13.65625 0.890625 C 10.039062 0.890625 6.957031 -0.378906 4.40625 -2.921875 C 1.851562 -5.472656 0.578125 -8.554688 0.578125 -12.171875 C 0.578125 -15.785156 1.851562 -18.863281 4.40625 -21.40625 C 6.957031 -23.957031 10.039062 -25.234375 13.65625 -25.234375 Z M 19.03125 -6.78125 C 20.507812 -8.269531 21.25 -10.066406 21.25 -12.171875 C 21.25 -14.273438 20.507812 -16.066406 19.03125 -17.546875 C 17.550781 -19.023438 15.757812 -19.765625 13.65625 -19.765625 C 11.539062 -19.765625 9.742188 -19.023438 8.265625 -17.546875 C 6.785156 -16.066406 6.046875 -14.273438 6.046875 -12.171875 C 6.046875 -10.066406 6.785156 -8.269531 8.265625 -6.78125 C 9.796875 -5.300781 11.59375 -4.5625 13.65625 -4.5625 C 15.707031 -4.5625 17.5 -5.300781 19.03125 -6.78125 Z M 19.03125 -6.78125 "/></g></g></g><g fill="#ffffff" fill-opacity="1"><g transform="translate(191.791766, 238.726259)"><g/></g></g><g fill="#ffa70c" fill-opacity="1"><g transform="translate(201.937491, 238.726259)"><g><path d="M 20.28125 -14.203125 C 20.800781 -13.960938 21.320312 -13.492188 21.84375 -12.796875 C 22.882812 -11.410156 23.40625 -9.578125 23.40625 -7.296875 C 23.40625 -4.515625 22.191406 -2.457031 19.765625 -1.125 C 18.546875 -0.476562 17.328125 -0.101562 16.109375 0 L 2.34375 0 L 2.34375 -25.34375 L 14.078125 -25.34375 C 15.035156 -25.34375 16.0625 -25.132812 17.15625 -24.71875 C 19.3125 -23.894531 20.691406 -22.453125 21.296875 -20.390625 C 21.734375 -18.910156 21.691406 -17.429688 21.171875 -15.953125 C 20.910156 -15.222656 20.613281 -14.640625 20.28125 -14.203125 Z M 8.421875 -20.625 L 8.421875 -14.96875 L 13.84375 -14.96875 C 14.625 -14.96875 15.300781 -15.242188 15.875 -15.796875 C 16.414062 -16.335938 16.6875 -17 16.6875 -17.78125 C 16.6875 -18.59375 16.414062 -19.269531 15.875 -19.8125 C 15.300781 -20.351562 14.625 -20.625 13.84375 -20.625 Z M 18.640625 -7.484375 C 18.640625 -8.265625 18.367188 -8.941406 17.828125 -9.515625 C 17.273438 -10.054688 16.609375 -10.328125 15.828125 -10.328125 L 8.421875 -10.328125 L 8.421875 -4.6875 L 15.828125 -4.6875 C 16.609375 -4.6875 17.273438 -4.957031 17.828125 -5.5 C 18.367188 -6.039062 18.640625 -6.703125 18.640625 -7.484375 Z M 18.640625 -7.484375 "/></g></g></g><g fill="#ffa70c" fill-opacity="1"><g transform="translate(226.500081, 238.726259)"><g><path d="M 27.65625 -25.34375 L 17.4375 -13.109375 L 17.4375 0 L 11.34375 0 L 11.34375 -13.109375 L 1.171875 -25.34375 L 9.171875 -25.34375 L 14.4375 -19 L 19.65625 -25.34375 Z M 27.65625 -25.34375 "/></g></g></g><g fill="#ffa70c" fill-opacity="1"><g transform="translate(255.312388, 238.726259)"><g><path d="M 20.4375 -19.265625 L 13.84375 -19.265625 L 13.84375 0 L 7.765625 0 L 7.765625 -19.265625 L 1.171875 -19.265625 L 1.171875 -25.34375 L 20.4375 -25.34375 Z M 20.4375 -19.265625 "/></g></g></g><g fill="#ffa70c" fill-opacity="1"><g transform="translate(276.560975, 238.726259)"><g><path d="M 7.25 -9.9375 L 7.25 -5.453125 L 18.875 -5.453125 L 18.875 0 L 1.171875 0 L 1.171875 -25.34375 L 18.875 -25.34375 L 18.875 -19.890625 L 7.25 -19.890625 L 7.25 -15.40625 L 17.125 -15.40625 L 17.125 -9.9375 Z M 7.25 -9.9375 "/></g></g></g><path stroke-linecap="butt" transform="matrix(-0.75, 0, 0, -0.75, 306.985444, 281.347863)" fill="none" stroke-linejoin="miter" d="M 0.00142472 3.500276 L 318.652487 3.500276 " stroke="#ffa70c" stroke-width="7" stroke-opacity="1" stroke-miterlimit="4"/><path stroke-linecap="butt" transform="matrix(0, 0.75, -0.75, 0, 195.727009, 189.1465)" fill="none" stroke-linejoin="miter" d="M 0.00258283 3.500596 L 20.408834 3.500596 " stroke="#ffa70c" stroke-width="7" stroke-opacity="1" stroke-miterlimit="4"/><path fill="#ffa70c" d="M 158.089844 199.203125 L 163.339844 199.203125 L 163.339844 204.453125 L 158.089844 204.453125 M 168.589844 199.203125 L 173.839844 199.203125 L 173.839844 204.453125 L 168.589844 204.453125 M 179.089844 199.203125 L 184.339844 199.203125 L 184.339844 204.453125 L 179.089844 204.453125 " fill-opacity="1" fill-rule="nonzero"/><path stroke-linecap="butt" transform="matrix(0.75, 0, 0, 0.75, 68.659958, 199.201525)" fill="none" stroke-linejoin="miter" d="M 0.000263812 3.502133 L 110.239854 3.502133 " stroke="#ffa70c" stroke-width="7" stroke-opacity="1" stroke-miterlimit="4"/><path stroke-linecap="butt" transform="matrix(0, 0.75, -0.75, 0, 206.602287, 186.89675)" fill="none" stroke-linejoin="miter" d="M 0.00224983 3.500966 L 23.408501 3.500966 " stroke="#ffa70c" stroke-width="7" stroke-opacity="1" stroke-miterlimit="4"/><path stroke-linecap="butt" transform="matrix(0, -0.75, 0.75, 0, 211.472657, 204.446809)" fill="none" stroke-linejoin="miter" d="M 0.0019953 3.499999 L 28.590539 3.499999 " stroke="#ffa70c" stroke-width="7" stroke-opacity="1" stroke-miterlimit="4"/><path stroke-linecap="butt" transform="matrix(0.75, 0, 0, 0.75, 222.727358, 199.201525)" fill="none" stroke-linejoin="miter" d="M -0.0010605 3.502133 L 111.248947 3.502133 " stroke="#ffa70c" stroke-width="7" stroke-opacity="1" stroke-miterlimit="4"/><path stroke-linecap="butt" transform="matrix(0.75, 0, 0, 0.75, 68.659958, 249.37598)" fill="none" stroke-linejoin="miter" d="M 0.000263812 2.498694 L 29.406516 2.498694 " stroke="#ffa70c" stroke-width="5" stroke-opacity="1" stroke-miterlimit="4"/><path stroke-linecap="butt" transform="matrix(0.75, 0, 0, 0.75, 68.659958, 258.747816)" fill="none" stroke-linejoin="miter" d="M 0.000263812 2.497704 L 29.406516 2.497704 " stroke="#ffa70c" stroke-width="5" stroke-opacity="1" stroke-miterlimit="4"/><path stroke-linecap="butt" transform="matrix(0.75, 0, 0, 0.75, 68.659958, 268.222864)" fill="none" stroke-linejoin="miter" d="M 0.000263812 2.499723 L 29.406516 2.499723 " stroke="#ffa70c" stroke-width="5" stroke-opacity="1" stroke-miterlimit="4"/><path stroke-linecap="butt" transform="matrix(0.75, 0, 0, 0.75, 284.940161, 258.747816)" fill="none" stroke-linejoin="miter" d="M 0.00166035 2.497704 L 29.407912 2.497704 " stroke="#ffa70c" stroke-width="5" stroke-opacity="1" stroke-miterlimit="4"/><path stroke-linecap="butt" transform="matrix(0.75, 0, 0, 0.75, 284.940161, 268.222864)" fill="none" stroke-linejoin="miter" d="M 0.00166035 2.499723 L 29.407912 2.499723 " stroke="#ffa70c" stroke-width="5" stroke-opacity="1" stroke-miterlimit="4"/><path stroke-linecap="butt" transform="matrix(0.75, 0, 0, 0.75, 284.940161, 249.37598)" fill="none" stroke-linejoin="miter" d="M 0.00166035 2.498694 L 29.407912 2.498694 " stroke="#ffa70c" stroke-width="5" stroke-opacity="1" stroke-miterlimit="4"/><path stroke-linecap="butt" transform="matrix(0.556482, -0.128446, 0.128446, 0.556482, 192.677555, 108.296302)" fill="none" stroke-linejoin="miter" d="M 11.168207 30.397288 C 9.253431 30.390536 7.550917 29.92035 6.055538 28.978529 C 4.560159 28.036708 3.395465 26.665808 2.551713 24.87762 C 1.707961 23.089431 1.289218 20.950092 1.285743 18.471392 C 1.288934 15.994231 1.704797 13.858006 2.545125 12.072458 C 3.393656 10.281784 4.565142 8.916631 6.054456 7.968796 C 7.548896 7.029163 9.250941 6.558622 11.167255 6.55871 C 13.076904 6.55726 14.772754 7.025907 16.266595 7.974393 C 17.761973 8.916214 18.928207 10.280449 19.77042 12.075302 C 20.614172 13.863491 21.041118 15.997704 21.039466 18.468201 C 21.041402 20.953565 20.618874 23.088252 19.770343 24.878926 C 18.928477 26.671138 17.756991 28.036291 16.262551 28.975923 C 14.773237 29.923759 13.077857 30.395838 11.168207 30.397288 Z M 11.164314 25.882825 C 12.56797 25.883915 13.675338 25.283132 14.473089 24.077398 C 15.272378 22.864999 15.676439 20.992792 15.675529 18.472568 C 15.676158 15.945678 15.277397 14.084713 14.468991 12.873266 C 13.672377 11.67156 12.569678 11.06606 11.166022 11.06497 C 9.775694 11.066957 8.681655 11.670817 7.87724 12.875013 C 7.079489 14.080747 6.683631 15.947827 6.683002 18.474717 C 6.683912 20.994941 7.081135 22.862571 7.876211 24.070942 C 8.684617 25.282389 9.780651 25.88635 11.164314 25.882825 Z M 11.164314 25.882825 " stroke="#000000" stroke-width="2.264543" stroke-opacity="1" stroke-miterlimit="4"/><path stroke-linecap="butt" transform="matrix(0.556482, -0.128446, 0.128446, 0.556482, 195.077058, 137.845832)" fill="none" stroke-linejoin="miter" d="M 7.255823 19.999051 L 7.255419 6.52846 L 2.369279 6.530799 L 2.36837 4.010574 L 5.41612 4.005075 C 6.033359 4.007154 6.514753 3.837487 6.866964 3.497611 C 7.212511 3.156197 7.387862 2.670205 7.387892 2.031434 L 7.385352 1.525441 L 10.524354 1.519946 L 10.526066 20.002791 Z M 7.255823 19.999051 " stroke="#000000" stroke-width="1.841414" stroke-opacity="1" stroke-miterlimit="4"/><path stroke-linecap="butt" transform="matrix(0.556482, -0.128446, 0.128446, 0.556482, 182.891272, 126.817756)" fill="none" stroke-linejoin="miter" d="M 5.240659 15.000609 L 5.241621 5.264728 L 1.709409 5.270718 L 1.709494 3.445657 L 3.914434 3.442169 C 4.355832 3.445778 4.707008 3.323269 4.961298 3.073104 C 5.214049 2.829604 5.337103 2.478951 5.338663 2.016022 L 5.338679 1.651009 L 7.606677 1.648038 L 7.606574 14.99918 Z M 5.240659 15.000609 " stroke="#000000" stroke-width="1.330959" stroke-opacity="1" stroke-miterlimit="4"/><path stroke-linecap="butt" transform="matrix(0.556482, -0.128446, 0.128446, 0.556482, 181.897361, 115.610529)" fill="none" stroke-linejoin="miter" d="M 4.315838 10.140559 C 3.796516 10.140022 3.328976 10.067203 2.922958 9.910311 C 2.516941 9.753419 2.15809 9.544239 1.856147 9.270978 C 1.552666 9.004382 1.301478 8.6937 1.086178 8.349184 C 0.87908 7.999542 0.711458 7.630934 0.576647 7.24182 C 0.448501 6.854245 0.356753 6.461033 0.299866 6.068847 C 0.244518 5.669997 0.211212 5.297293 0.216355 4.940484 C 0.214834 4.582136 0.246123 4.203284 0.302021 3.809053 C 0.357919 3.414821 0.448677 3.021617 0.574297 2.62944 C 0.698377 2.243927 0.860907 1.874309 1.06855 1.522122 C 1.274654 1.176601 1.521256 0.868505 1.81656 0.592709 C 2.110325 0.323577 2.461505 0.109815 2.855233 -0.0449896 C 3.248962 -0.199794 3.702154 -0.277697 4.214812 -0.278699 C 4.775659 -0.275597 5.273446 -0.181758 5.711759 0.0176863 C 6.150072 0.21713 6.536603 0.488857 6.864688 0.831327 C 7.191235 1.180462 7.457286 1.578809 7.671044 2.021242 C 7.889928 2.471879 8.047804 2.943531 8.1498 3.444402 C 8.258461 3.946811 8.310728 4.450244 8.313268 4.956237 C 8.310682 5.454027 8.258368 5.954379 8.157864 6.450626 C 8.055822 6.953539 7.898415 7.422613 7.690768 7.866053 C 7.477995 8.301289 7.211395 8.696023 6.892506 9.04359 C 6.575155 9.384493 6.196801 9.655159 5.772312 9.852 C 5.347822 10.048841 4.863357 10.140584 4.315838 10.140559 Z M 4.274904 8.432382 C 4.583524 8.433421 4.852673 8.362174 5.087476 8.226844 C 5.323818 8.084848 5.527864 7.900301 5.696027 7.658334 C 5.862651 7.423032 6.003645 7.146716 6.114393 6.84938 C 6.220014 6.543841 6.300516 6.225484 6.35436 5.900974 C 6.403078 5.568262 6.428726 5.244263 6.424639 4.927441 C 6.430294 4.598828 6.399549 4.275852 6.350349 3.941597 C 6.299611 3.614006 6.2176 3.300256 6.102779 3.007011 C 5.99616 2.708639 5.853653 2.444101 5.681923 2.214935 C 5.503529 1.984231 5.2995 1.803766 5.056506 1.670464 C 4.806848 1.535624 4.528478 1.464351 4.21832 1.469976 C 3.903036 1.467399 3.620558 1.535569 3.37909 1.669362 C 3.137623 1.803154 2.926912 1.986163 2.753623 2.219927 C 2.580334 2.453691 2.434214 2.721804 2.323466 3.01914 C 2.219383 3.318015 2.133755 3.628169 2.085037 3.960881 C 2.031193 4.285391 2.004007 4.616054 2.006555 4.939541 C 2.002439 5.26149 2.031646 5.59113 2.082384 5.918721 C 2.133122 6.246311 2.221797 6.5616 2.326878 6.866636 C 2.440161 7.166546 2.589332 7.432622 2.766188 7.66999 C 2.943044 7.907359 3.160402 8.0909 3.410061 8.225741 C 3.65818 8.367246 3.944753 8.433392 4.274904 8.432382 Z M 4.274904 8.432382 " stroke="#000000" stroke-width="1.008336" stroke-opacity="1" stroke-miterlimit="4"/><path stroke-linecap="butt" transform="matrix(0.47529, -0.109705, 0.109705, 0.47529, 173.839006, 155.21123)" fill="none" stroke-linejoin="miter" d="M 3.249858 9.001055 L 3.254938 2.961505 L 1.059884 2.964405 L 1.058735 1.829963 L 2.422466 1.832427 C 2.702175 1.831239 2.916462 1.757421 3.07493 1.604969 C 3.233399 1.452517 3.309039 1.231634 3.307851 0.951925 L 3.311463 0.722636 L 4.717811 0.718499 L 4.712627 9.001723 Z M 3.249858 9.001055 " stroke="#000000" stroke-width="0.825" stroke-opacity="1" stroke-miterlimit="4"/><path stroke-linecap="butt" transform="matrix(0.556482, -0.128446, 0.128446, 0.556482, 175.825438, 142.557471)" fill="none" stroke-linejoin="miter" d="M 4.25617 10.137898 C 3.743513 10.1389 3.284175 10.060955 2.883284 9.912266 C 2.48393 9.756912 2.131744 9.549269 1.834928 9.284212 C 1.531447 9.017616 1.278721 8.713598 1.070085 8.370621 C 0.868113 8.029181 0.700491 7.660573 0.570806 7.279662 C 0.44266 6.892087 0.356039 6.507077 0.297613 6.121556 C 0.240726 5.729371 0.212547 5.36487 0.211026 5.006522 C 0.21463 4.656377 0.237717 4.282651 0.298741 3.896622 C 0.354639 3.502391 0.443859 3.115852 0.56794 2.730339 C 0.683818 2.349952 0.853012 1.981872 1.050914 1.641476 C 1.257018 1.295955 1.503621 0.987859 1.795847 0.725391 C 2.082948 0.454721 2.425926 0.246086 2.819654 0.0912812 C 3.206718 -0.0650615 3.651708 -0.137838 4.157701 -0.140378 C 4.711884 -0.138815 5.201467 -0.0398494 5.634654 0.151392 C 6.066303 0.349298 6.446169 0.619486 6.76759 0.960418 C 7.089011 1.30135 7.3566 1.693033 7.571896 2.128801 C 7.778989 2.569696 7.936866 3.041349 8.0404 3.535555 C 8.143934 4.029762 8.19774 4.52653 8.195154 5.02432 C 8.194106 5.515446 8.14333 6.009133 8.044365 6.498717 C 7.943861 6.994964 7.787992 7.457374 7.581883 7.894149 C 7.375775 8.330924 7.112251 8.712329 6.801565 9.05477 C 6.484214 9.395673 6.114063 9.661212 5.691112 9.851389 C 5.274825 10.043104 4.795486 10.14305 4.25617 10.137898 Z M 4.217286 8.451253 C 4.519241 8.450754 4.786852 8.386172 5.021655 8.250841 C 5.249794 8.113972 5.447176 7.927886 5.6138 7.692584 C 5.780425 7.457282 5.91988 7.18763 6.030628 6.890294 C 6.134711 6.59142 6.213675 6.279727 6.267519 5.955218 C 6.314698 5.62917 6.338808 5.311836 6.341386 4.996551 C 6.338837 4.673064 6.314757 4.351627 6.264019 4.024036 C 6.211743 3.70311 6.128194 3.396024 6.020036 3.104317 C 5.911879 2.81261 5.776037 2.549611 5.604307 2.320445 C 5.432577 2.091279 5.228548 1.910814 4.984016 1.784176 C 4.741023 1.650874 4.469317 1.58114 4.159159 1.586765 C 3.850539 1.585726 3.576265 1.64877 3.334797 1.782562 C 3.093329 1.916355 2.884157 2.092699 2.717532 2.328002 C 2.545781 2.555101 2.4012 2.81655 2.297116 3.115424 C 2.187907 3.406096 2.108943 3.717788 2.055099 4.042298 C 2.001255 4.366808 1.975608 4.690806 1.979694 5.007629 C 1.975578 5.329578 1.999658 5.651015 2.051935 5.971941 C 2.109337 6.30107 2.184683 6.613282 2.299505 6.906527 C 2.406124 7.204899 2.555295 7.470975 2.727025 7.700141 C 2.903881 7.93751 3.114575 8.119513 3.357568 8.252815 C 3.607226 8.387655 3.893799 8.453801 4.217286 8.451253 Z M 4.217286 8.451253 " stroke="#000000" stroke-width="0.994668" stroke-opacity="1" stroke-miterlimit="4"/><path stroke-linecap="butt" transform="matrix(0.556482, -0.128446, 0.128446, 0.556482, 170.720091, 132.71523)" fill="none" stroke-linejoin="miter" d="M 3.789532 9.9994 L 3.791394 2.96625 L 1.236308 2.966133 L 1.238932 1.647065 L 2.825095 1.648163 C 3.148582 1.645615 3.400814 1.556424 3.588454 1.382129 C 3.770969 1.199631 3.85762 0.94587 3.85661 0.615718 L 3.861748 0.350162 L 5.497639 0.348699 L 5.501808 10.001529 Z M 3.789532 9.9994 " stroke="#000000" stroke-width="0.962211" stroke-opacity="1" stroke-miterlimit="4"/><path stroke-linecap="butt" transform="matrix(0.556482, -0.128446, 0.128446, 0.556482, 184.84716, 149.293159)" fill="none" stroke-linejoin="miter" d="M 4.419004 11.148839 C 3.886353 11.145226 3.405484 11.069331 2.992802 10.9109 C 2.573455 10.750932 2.209479 10.533548 1.900871 10.25875 C 1.592264 9.983951 1.329286 9.663528 1.117062 9.305683 C 0.896635 8.952964 0.723887 8.576153 0.592153 8.173711 C 0.45888 7.777933 0.368671 7.378056 0.306657 6.977668 C 0.246183 6.570615 0.222618 6.18612 0.222635 5.821108 C 0.222652 5.456096 0.248815 5.069041 0.307789 4.661481 C 0.365226 4.260585 0.457522 3.860716 0.58468 3.461875 C 0.711837 3.063033 0.88257 2.688288 1.09175 2.329437 C 1.300931 1.970587 1.555736 1.657365 1.859243 1.376442 C 2.162749 1.09552 2.513929 0.881758 2.922525 0.723365 C 3.324456 0.563435 3.792516 0.481944 4.311838 0.48248 C 4.887552 0.481994 5.397129 0.585575 5.842107 0.786557 C 6.293749 0.989077 6.685406 1.269007 7.018617 1.61968 C 7.356955 1.978556 7.62967 2.378441 7.853681 2.83728 C 8.071026 3.294581 8.232491 3.7811 8.339613 4.290174 C 8.451861 4.807451 8.502591 5.317547 8.502054 5.836869 C 8.503056 6.349527 8.447665 6.863207 8.344085 7.372784 C 8.240505 7.882361 8.080021 8.364765 7.864171 8.81333 C 7.654986 9.263434 7.378645 9.669958 7.053091 10.015987 C 6.726 10.368681 6.346108 10.646011 5.906751 10.84644 C 5.467394 11.046869 4.974726 11.143738 4.419004 11.148839 Z M 4.373971 9.397599 C 4.690794 9.393512 4.966607 9.323803 5.209613 9.183346 C 5.445955 9.041351 5.651539 8.850139 5.827905 8.603047 C 6.002732 8.362618 6.143726 8.086302 6.25755 7.775637 C 6.36471 7.463433 6.44675 7.138412 6.503671 6.800574 C 6.552388 6.467861 6.579574 6.137198 6.578564 5.807047 C 6.577554 5.476895 6.549886 5.14059 6.494022 4.804797 C 6.444822 4.470542 6.357685 4.148589 6.24594 3.842015 C 6.132657 3.542105 5.991688 3.270902 5.814832 3.033534 C 5.631312 2.794627 5.420618 2.612624 5.17096 2.477783 C 4.92284 2.336278 4.636268 2.270132 4.312781 2.272681 C 3.990832 2.268565 3.708354 2.336735 3.458684 2.475654 C 3.209013 2.614573 2.991638 2.796043 2.816811 3.036472 C 2.635319 3.275362 2.494325 3.551678 2.382039 3.855678 C 2.269753 4.159679 2.187713 4.4847 2.132331 4.815875 C 2.07541 5.153713 2.05335 5.492579 2.047696 5.821192 C 2.048706 6.151344 2.076374 6.487648 2.132238 6.823442 C 2.186564 7.1659 2.267037 7.486314 2.385446 7.794427 C 2.497192 8.101001 2.644824 8.373742 2.828345 8.612649 C 3.010327 8.85822 3.232811 9.049964 3.489134 9.186343 C 3.737254 9.327848 4.037155 9.397071 4.373971 9.397599 Z M 4.373971 9.397599 " stroke="#000000" stroke-width="1.031628" stroke-opacity="1" stroke-miterlimit="4"/><path stroke-linecap="butt" transform="matrix(0.556482, -0.128446, 0.128446, 0.556482, 162.453656, 158.00501)" fill="none" stroke-linejoin="miter" d="M 3.545633 9.997971 L 3.539271 3.426213 L 1.153363 3.423027 L 1.155982 2.195212 L 2.644227 2.194768 C 2.946183 2.194269 3.182009 2.115331 3.348118 1.943086 C 3.519353 1.779043 3.609592 1.540149 3.603967 1.229991 L 3.604491 0.984428 L 5.135799 0.979884 L 5.13846 10.000607 Z M 3.545633 9.997971 " stroke="#000000" stroke-width="0.899243" stroke-opacity="1" stroke-miterlimit="4"/><path stroke-linecap="butt" transform="matrix(0.551242, -0.127236, 0.127236, 0.551242, 164.710642, 148.498965)" fill="none" stroke-linejoin="miter" d="M 3.530273 9.114748 C 3.104863 9.115763 2.728621 9.057265 2.391196 8.922691 C 2.058947 8.796398 1.766033 8.622494 1.519181 8.402532 C 1.272329 8.18257 1.061705 7.928453 0.892485 7.648461 C 0.718091 7.360188 0.581994 7.059496 0.470739 6.74328 C 0.367766 6.421888 0.293256 6.09998 0.24721 5.777557 C 0.201165 5.455133 0.172197 5.150823 0.176869 4.854278 C 0.17326 4.562908 0.20122 4.257566 0.247295 3.935146 C 0.294923 3.605999 0.36791 3.289791 0.470913 2.966338 C 0.572364 2.649614 0.705901 2.347382 0.871524 2.059643 C 1.042322 1.780184 1.243654 1.521945 1.485868 1.301488 C 1.728083 1.081031 2.016356 0.906636 2.337231 0.775198 C 2.663281 0.652041 3.032284 0.588401 3.450967 0.585833 C 3.911569 0.585854 4.318345 0.665573 4.678022 0.826542 C 5.036145 0.994238 5.346654 1.214721 5.614722 1.49627 C 5.88279 1.777819 6.104796 2.105426 6.282292 2.472364 C 6.454613 2.831021 6.590706 3.223833 6.673492 3.632687 C 6.763006 4.043093 6.802319 4.456084 6.80644 4.868039 C 6.803834 5.278441 6.759307 5.686254 6.678036 6.099757 C 6.59159 6.50498 6.467882 6.88743 6.291905 7.250728 C 6.122655 7.61558 5.907348 7.934369 5.644429 8.213824 C 5.38151 8.493278 5.074087 8.719943 4.725263 8.880361 C 4.377993 9.034052 3.975867 9.118391 3.530273 9.114748 Z M 3.498251 7.718448 C 3.752876 7.72053 3.97283 7.657918 4.168461 7.547176 C 4.357365 7.43488 4.520395 7.281181 4.657549 7.086078 C 4.801432 6.892528 4.916334 6.67103 5.002256 6.421584 C 5.094905 6.173691 5.162196 5.912859 5.202576 5.645815 C 5.244509 5.372043 5.263152 5.107068 5.260059 4.844162 C 5.263694 4.582809 5.240417 4.315244 5.196957 4.043021 C 5.153497 3.770797 5.085195 3.514099 4.998778 3.274478 C 4.905634 3.033304 4.792822 2.815936 4.652062 2.627548 C 4.504574 2.437608 4.332761 2.291656 4.138174 2.182965 C 3.93686 2.072722 3.709666 2.013196 3.453488 2.017842 C 3.192135 2.014207 2.967007 2.068537 2.764647 2.177727 C 2.569015 2.288469 2.39253 2.439063 2.255376 2.634166 C 2.113046 2.820988 1.991416 3.040933 1.907047 3.283651 C 1.814398 3.531544 1.74866 3.785649 1.70828 4.052693 C 1.65962 4.324912 1.640976 4.589887 1.642516 4.859521 C 1.638882 5.120874 1.662158 5.388438 1.705618 5.660662 C 1.749078 5.932885 1.817381 6.189584 1.908972 6.437485 C 2.002117 6.678659 2.121656 6.89758 2.267591 7.094249 C 2.415078 7.284189 2.585339 7.436869 2.786654 7.547112 C 2.994696 7.658908 3.228617 7.719988 3.498251 7.718448 Z M 3.498251 7.718448 " stroke="#000000" stroke-width="0.825" stroke-opacity="1" stroke-miterlimit="4"/><g fill="#ffffff" fill-opacity="1"><g transform="translate(100.430241, 270.372815)"><g><path d="M 15.6875 -2.21875 C 13.976562 -0.789062 12.023438 -0.078125 9.828125 -0.078125 C 7.347656 -0.078125 5.222656 -0.960938 3.453125 -2.734375 C 1.691406 -4.492188 0.8125 -6.613281 0.8125 -9.09375 C 0.8125 -11.601562 1.691406 -13.738281 3.453125 -15.5 C 5.222656 -17.257812 7.347656 -18.140625 9.828125 -18.140625 C 12.046875 -18.140625 14 -17.421875 15.6875 -15.984375 L 12.984375 -13.3125 C 12.066406 -14.007812 11.015625 -14.359375 9.828125 -14.359375 C 8.390625 -14.359375 7.15625 -13.847656 6.125 -12.828125 C 5.101562 -11.796875 4.59375 -10.550781 4.59375 -9.09375 C 4.59375 -7.65625 5.101562 -6.425781 6.125 -5.40625 C 7.15625 -4.375 8.390625 -3.859375 9.828125 -3.859375 C 11.015625 -3.859375 12.066406 -4.207031 12.984375 -4.90625 Z M 15.6875 -2.21875 "/></g></g></g><g fill="#ffffff" fill-opacity="1"><g transform="translate(117.729679, 270.372815)"><g><path d="M 9.453125 -17.46875 C 11.953125 -17.46875 14.082031 -16.585938 15.84375 -14.828125 C 17.613281 -13.054688 18.5 -10.921875 18.5 -8.421875 C 18.5 -5.921875 17.613281 -3.789062 15.84375 -2.03125 C 14.082031 -0.257812 11.953125 0.625 9.453125 0.625 C 6.953125 0.625 4.816406 -0.257812 3.046875 -2.03125 C 1.285156 -3.789062 0.40625 -5.921875 0.40625 -8.421875 C 0.40625 -10.921875 1.285156 -13.054688 3.046875 -14.828125 C 4.816406 -16.585938 6.953125 -17.46875 9.453125 -17.46875 Z M 13.171875 -4.703125 C 14.203125 -5.722656 14.71875 -6.960938 14.71875 -8.421875 C 14.71875 -9.878906 14.203125 -11.125 13.171875 -12.15625 C 12.148438 -13.175781 10.910156 -13.6875 9.453125 -13.6875 C 7.992188 -13.6875 6.75 -13.175781 5.71875 -12.15625 C 4.695312 -11.125 4.1875 -9.878906 4.1875 -8.421875 C 4.1875 -6.960938 4.695312 -5.722656 5.71875 -4.703125 C 6.78125 -3.671875 8.023438 -3.15625 9.453125 -3.15625 C 10.867188 -3.15625 12.109375 -3.671875 13.171875 -4.703125 Z M 13.171875 -4.703125 "/></g></g></g><g fill="#ffffff" fill-opacity="1"><g transform="translate(136.621424, 270.372815)"><g><path d="M 12.28125 -17.546875 L 16.5 -17.546875 L 16.5 0 L 4.859375 -8.5625 L 4.859375 0 L 0.640625 0 L 0.640625 -17.546875 L 12.28125 -8.59375 Z M 12.28125 -17.546875 "/></g></g></g><g fill="#ffffff" fill-opacity="1"><g transform="translate(153.758938, 270.372815)"><g><path d="M 7.96875 0.03125 C 6.78125 0.03125 5.734375 -0.140625 4.828125 -0.484375 C 4.109375 -0.773438 3.375 -1.253906 2.625 -1.921875 C 1.757812 -2.710938 1.207031 -3.691406 0.96875 -4.859375 C 0.882812 -5.234375 0.84375 -5.613281 0.84375 -6 C 0.820312 -6.125 0.820312 -6.25 0.84375 -6.375 L 0.84375 -6.5625 L 4.53125 -6.5 L 4.53125 -6.53125 C 4.53125 -5.863281 4.675781 -5.316406 4.96875 -4.890625 C 5.507812 -4.078125 6.507812 -3.671875 7.96875 -3.671875 C 10.300781 -3.671875 11.46875 -4.21875 11.46875 -5.3125 C 11.46875 -6.375 10.265625 -7.039062 7.859375 -7.3125 C 6.472656 -7.476562 5.285156 -7.769531 4.296875 -8.1875 C 3.378906 -8.5625 2.628906 -9.0625 2.046875 -9.6875 C 1.242188 -10.59375 0.84375 -11.640625 0.84375 -12.828125 C 0.84375 -13.566406 0.972656 -14.257812 1.234375 -14.90625 C 1.429688 -15.394531 1.703125 -15.835938 2.046875 -16.234375 C 3.304688 -17.648438 5.304688 -18.359375 8.046875 -18.359375 C 9.679688 -18.359375 11.066406 -18.035156 12.203125 -17.390625 C 13.066406 -16.898438 13.769531 -16.25 14.3125 -15.4375 C 14.707031 -14.832031 14.984375 -14.132812 15.140625 -13.34375 C 15.203125 -13.070312 15.238281 -12.800781 15.25 -12.53125 C 15.269531 -12.4375 15.28125 -12.347656 15.28125 -12.265625 L 15.28125 -12.09375 L 11.578125 -12.09375 L 11.578125 -12.0625 C 11.597656 -12.601562 11.460938 -13.066406 11.171875 -13.453125 C 10.597656 -14.253906 9.554688 -14.65625 8.046875 -14.65625 C 7.128906 -14.65625 6.375 -14.539062 5.78125 -14.3125 C 5.039062 -14.019531 4.671875 -13.601562 4.671875 -13.0625 C 4.671875 -11.945312 5.867188 -11.253906 8.265625 -10.984375 C 10.960938 -10.679688 12.90625 -9.847656 14.09375 -8.484375 C 14.882812 -7.546875 15.28125 -6.488281 15.28125 -5.3125 L 15.28125 -5.078125 C 15.28125 -4.960938 15.269531 -4.851562 15.25 -4.75 C 15.238281 -4.457031 15.203125 -4.1875 15.140625 -3.9375 C 14.960938 -3.21875 14.625 -2.582031 14.125 -2.03125 C 13.53125 -1.363281 12.726562 -0.847656 11.71875 -0.484375 C 10.707031 -0.140625 9.457031 0.03125 7.96875 0.03125 Z M 7.96875 0.03125 "/></g></g></g><g fill="#ffffff" fill-opacity="1"><g transform="translate(169.843906, 270.372815)"><g><path d="M 11.90625 -17.546875 L 15.828125 -17.546875 L 15.828125 -7.421875 C 15.828125 -5.222656 15 -3.394531 13.34375 -1.9375 C 11.84375 -0.644531 10.15625 0 8.28125 0 C 6.488281 0 4.851562 -0.628906 3.375 -1.890625 C 1.664062 -3.328125 0.8125 -5.191406 0.8125 -7.484375 L 0.8125 -17.546875 L 4.71875 -17.546875 L 4.71875 -7.484375 C 4.71875 -6.398438 5.109375 -5.535156 5.890625 -4.890625 C 6.242188 -4.566406 6.664062 -4.320312 7.15625 -4.15625 C 7.570312 -4 7.945312 -3.921875 8.28125 -3.921875 C 8.613281 -3.921875 9.019531 -4 9.5 -4.15625 C 10.039062 -4.375 10.460938 -4.625 10.765625 -4.90625 C 11.160156 -5.269531 11.441406 -5.632812 11.609375 -6 C 11.804688 -6.394531 11.90625 -6.867188 11.90625 -7.421875 Z M 11.90625 -17.546875 "/></g></g></g><g fill="#ffffff" fill-opacity="1"><g transform="translate(186.468646, 270.372815)"><g><path d="M 5.015625 -3.78125 L 13.46875 -3.78125 L 13.46875 0 L 0.8125 0 L 0.8125 -17.546875 L 5.015625 -17.546875 Z M 5.015625 -3.78125 "/></g></g></g><g fill="#ffffff" fill-opacity="1"><g transform="translate(200.259622, 270.372815)"><g><path d="M 14.140625 -13.34375 L 9.578125 -13.34375 L 9.578125 0 L 5.375 0 L 5.375 -13.34375 L 0.8125 -13.34375 L 0.8125 -17.546875 L 14.140625 -17.546875 Z M 14.140625 -13.34375 "/></g></g></g><g fill="#ffffff" fill-opacity="1"><g transform="translate(214.968197, 270.372815)"><g><path d="M 9.453125 -17.46875 C 11.953125 -17.46875 14.082031 -16.585938 15.84375 -14.828125 C 17.613281 -13.054688 18.5 -10.921875 18.5 -8.421875 C 18.5 -5.921875 17.613281 -3.789062 15.84375 -2.03125 C 14.082031 -0.257812 11.953125 0.625 9.453125 0.625 C 6.953125 0.625 4.816406 -0.257812 3.046875 -2.03125 C 1.285156 -3.789062 0.40625 -5.921875 0.40625 -8.421875 C 0.40625 -10.921875 1.285156 -13.054688 3.046875 -14.828125 C 4.816406 -16.585938 6.953125 -17.46875 9.453125 -17.46875 Z M 13.171875 -4.703125 C 14.203125 -5.722656 14.71875 -6.960938 14.71875 -8.421875 C 14.71875 -9.878906 14.203125 -11.125 13.171875 -12.15625 C 12.148438 -13.175781 10.910156 -13.6875 9.453125 -13.6875 C 7.992188 -13.6875 6.75 -13.175781 5.71875 -12.15625 C 4.695312 -11.125 4.1875 -9.878906 4.1875 -8.421875 C 4.1875 -6.960938 4.695312 -5.722656 5.71875 -4.703125 C 6.78125 -3.671875 8.023438 -3.15625 9.453125 -3.15625 C 10.867188 -3.15625 12.109375 -3.671875 13.171875 -4.703125 Z M 13.171875 -4.703125 "/></g></g></g><g fill="#ffffff" fill-opacity="1"><g transform="translate(233.859942, 270.372815)"><g><path d="M 15.46875 -11.5625 C 15.46875 -10.425781 15.179688 -9.367188 14.609375 -8.390625 C 13.898438 -7.242188 12.910156 -6.445312 11.640625 -6 L 15.421875 0 L 10.6875 0 L 7.015625 -5.59375 L 5.015625 -5.59375 L 5.015625 0 L 0.8125 0 L 0.8125 -17.546875 L 9.203125 -17.546875 C 11.203125 -17.546875 12.785156 -16.890625 13.953125 -15.578125 C 14.960938 -14.421875 15.46875 -13.082031 15.46875 -11.5625 Z M 5.015625 -13.765625 L 5.015625 -9.375 L 9.1875 -9.375 C 9.757812 -9.375 10.21875 -9.453125 10.5625 -9.609375 C 10.84375 -9.773438 11.046875 -9.929688 11.171875 -10.078125 C 11.359375 -10.285156 11.492188 -10.535156 11.578125 -10.828125 C 11.648438 -11.078125 11.6875 -11.320312 11.6875 -11.5625 C 11.6875 -11.8125 11.648438 -12.0625 11.578125 -12.3125 C 11.472656 -12.601562 11.320312 -12.851562 11.125 -13.0625 C 10.726562 -13.53125 10.085938 -13.765625 9.203125 -13.765625 Z M 5.015625 -13.765625 "/></g></g></g><g fill="#ffffff" fill-opacity="1"><g transform="translate(250.133829, 270.372815)"><g><path d="M 0.40625 -17.546875 L 4.609375 -17.546875 L 4.609375 0 L 0.40625 0 Z M 0.40625 -17.546875 "/></g></g></g><g fill="#ffffff" fill-opacity="1"><g transform="translate(255.153631, 270.372815)"><g><path d="M 14.28125 0 L 13.015625 -2.453125 L 6.40625 -2.453125 L 5.125 0 L 0.265625 0 L 9.71875 -17.546875 L 19.140625 0 Z M 11.3125 -5.75 L 9.71875 -8.828125 L 8.09375 -5.75 Z M 11.3125 -5.75 "/></g></g></g></svg>