<?xml version="1.0" standalone="no"?>
<!DOCTYPE svg PUBLIC "-//W3C//DTD SVG 20010904//EN"
 "http://www.w3.org/TR/2001/REC-SVG-20010904/DTD/svg10.dtd">
<svg version="1.0" xmlns="http://www.w3.org/2000/svg"
 width="920.000000pt" height="920.000000pt" viewBox="0 0 920.000000 920.000000"
 preserveAspectRatio="xMidYMid meet">

<g transform="translate(0.000000,920.000000) scale(0.100000,-0.100000)"
fill="#000000" stroke="none">
<path d="M5580 6397 l0 -787 -2357 -2 -2358 -3 0 -1005 0 -1005 2357 -3 2358
-2 2 -785 3 -784 40 37 c22 21 218 204 435 407 217 203 429 401 470 440 41 39
118 111 170 160 171 160 255 239 336 315 43 41 353 331 687 644 334 313 607
572 607 576 0 4 -26 31 -57 60 -32 30 -94 88 -138 130 -44 41 -147 138 -230
215 -82 77 -185 174 -230 216 -44 41 -159 149 -255 239 -96 90 -209 195 -250
234 -41 39 -142 134 -225 211 -82 77 -181 169 -220 206 -38 36 -108 102 -155
146 -47 43 -121 113 -165 155 -44 41 -231 216 -415 388 -184 172 -352 329
-372 348 l-38 36 0 -787z m429 -4 c75 -69 168 -156 206 -192 39 -36 133 -125
210 -196 77 -71 169 -157 205 -191 36 -33 135 -125 220 -204 85 -79 191 -177
235 -218 44 -42 107 -101 140 -131 33 -31 186 -173 340 -316 154 -143 300
-279 325 -302 l45 -42 -30 -29 c-16 -16 -136 -127 -265 -247 -129 -120 -293
-273 -365 -340 -71 -67 -299 -278 -505 -470 -206 -191 -431 -401 -500 -465
-69 -64 -186 -173 -261 -243 -75 -70 -139 -127 -143 -127 -3 0 -6 270 -6 600
l0 600 -2355 0 -2355 0 0 720 0 720 2355 0 2355 0 0 600 c0 330 3 600 6 600 4
0 68 -57 143 -127z"/>
</g>
</svg>
